<svg width="374" height="80" viewBox="0 0 374 80" fill="none" xmlns="http://www.w3.org/2000/svg">
<path d="M73.4606 21.5084C85.7724 21.5084 93.8331 28.9617 93.8331 40.8319C93.8331 52.6469 85.7724 59.8794 73.4606 59.8794H60.9279V21.5084H73.4606ZM67.2218 54.7449H73.4606C82.515 54.7449 87.3735 49.5551 87.3735 40.8319C87.3735 32.0535 82.515 26.6429 73.4606 26.6429H67.2218V54.7449ZM112.88 34.2619C108.629 34.2619 105.205 37.1328 104.543 41.9361H121.382C121.272 37.2433 117.573 34.2619 112.88 34.2619ZM127.124 50.8249C125.412 56.1251 120.609 60.3763 113.156 60.3763C104.433 60.3763 97.973 54.1928 97.973 44.6414C97.973 35.0901 104.157 28.9617 113.156 28.9617C121.824 28.9617 127.952 34.9796 127.952 43.9237C127.952 44.9727 127.897 45.9665 127.731 47.0154H104.488C104.929 52.0396 108.518 55.0761 113.156 55.0761C117.02 55.0761 119.174 53.199 120.333 50.8249H127.124ZM132.048 44.6414C132.048 35.1453 138.231 28.9617 146.955 28.9617C154.408 28.9617 159.267 32.6608 160.978 39.0652H154.187C153.138 36.1391 150.709 34.2619 146.955 34.2619C141.875 34.2619 138.508 38.0162 138.508 44.6414C138.508 51.3218 141.875 55.0761 146.955 55.0761C150.709 55.0761 153.028 53.4198 154.187 50.2728H160.978C159.267 56.2355 154.408 60.3763 146.955 60.3763C138.231 60.3763 132.048 54.1928 132.048 44.6414ZM167.25 59.8794V19.0239H173.544V42.7643L184.586 29.4586H193.31L179.286 44.6966L193.31 59.8794H184.807L173.544 46.7946V59.8794H167.25ZM197.821 59.8794V21.5084H220.402V26.6429H204.115V37.961H216.813V43.0955H204.115V59.8794H197.821ZM253.784 29.4586V59.8794H247.491V56.2355C245.503 58.8304 242.08 60.3211 238.491 60.3211C231.369 60.3211 225.959 55.8491 225.959 47.3467V29.4586H232.197V46.4081C232.197 51.9844 235.234 54.8553 239.816 54.8553C244.454 54.8553 247.491 51.9844 247.491 46.4081V29.4586H253.784ZM284.78 51.377C284.78 56.5116 280.308 60.3763 273.131 60.3763C265.843 60.3763 260.709 56.0699 260.433 50.5489H266.947C267.168 53.0333 269.542 55.0761 273.02 55.0761C276.664 55.0761 278.597 53.5302 278.597 51.4322C278.597 45.4696 260.929 48.8926 260.929 37.7401C260.929 32.8817 265.457 28.9617 272.634 28.9617C279.535 28.9617 284.062 32.6608 284.394 38.7339H278.1C277.879 36.0838 275.836 34.2619 272.413 34.2619C269.045 34.2619 267.279 35.6422 267.279 37.6849C267.279 43.8133 284.449 40.3902 284.78 51.377ZM291.581 59.8794V29.4586H297.875V59.8794H291.581ZM294.783 25.4283C292.52 25.4283 290.753 23.6616 290.753 21.398C290.753 19.1343 292.52 17.3676 294.783 17.3676C296.992 17.3676 298.758 19.1343 298.758 21.398C298.758 23.6616 296.992 25.4283 294.783 25.4283ZM335.124 44.6414C335.124 54.1928 328.057 60.3763 319.334 60.3763C310.666 60.3763 304.096 54.1928 304.096 44.6414C304.096 35.0901 310.942 28.9617 319.61 28.9617C328.278 28.9617 335.124 35.0901 335.124 44.6414ZM310.5 44.6414C310.5 51.5427 314.585 54.9105 319.334 54.9105C324.026 54.9105 328.664 51.5427 328.664 44.6414C328.664 37.7401 324.192 34.4275 319.499 34.4275C314.751 34.4275 310.5 37.7401 310.5 44.6414ZM362.933 59.8794V42.8747C362.933 37.2985 359.896 34.4275 355.314 34.4275C350.676 34.4275 347.639 37.2985 347.639 42.8747V59.8794H341.346V29.4586H347.639V32.9369C349.682 30.4524 353.05 28.9617 356.694 28.9617C363.816 28.9617 369.171 33.4338 369.171 41.9361V59.8794H362.933Z" fill="#392E7B"/>
<path d="M24.8244 45.6737C25.1139 45.5636 25.4349 45.5636 25.7245 45.6737L48.7135 54.4182C49.7754 54.8221 49.7754 56.2982 48.7135 56.7022L25.7245 65.4467C25.4349 65.5568 25.1139 65.5568 24.8244 65.4467L1.83533 56.7022C0.773445 56.2982 0.773443 54.8221 1.83533 54.4182L24.8244 45.6737Z" fill="#EF4C4C"/>
<path d="M24.8244 35.1806C25.1139 35.0704 25.4349 35.0704 25.7245 35.1806L48.7135 43.9251C49.7754 44.329 49.7754 45.8051 48.7135 46.209L25.7245 54.9535C25.4349 55.0636 25.1139 55.0636 24.8244 54.9535L1.83533 46.209C0.773445 45.8051 0.773443 44.329 1.83533 43.9251L24.8244 35.1806Z" fill="#B2B7FF" fill-opacity="0.5"/>
<path opacity="0.62" d="M24.8244 35.1806C25.1139 35.0704 25.4349 35.0704 25.7245 35.1806L48.7135 43.9251C49.7754 44.329 49.7754 45.8051 48.7135 46.209L25.7245 54.9535C25.4349 55.0636 25.1139 55.0636 24.8244 54.9535L1.83533 46.209C0.773445 45.8051 0.773443 44.329 1.83533 43.9251L24.8244 35.1806Z" fill="#EF7EB4"/>
<path opacity="0.91" d="M24.8244 24.6884C25.1139 24.5782 25.4349 24.5782 25.7245 24.6884L48.7135 33.4329C49.7754 33.8368 49.7754 35.3129 48.7135 35.7168L25.7245 44.4613C25.4349 44.5714 25.1139 44.5714 24.8244 44.4613L1.83533 35.7168C0.773445 35.3129 0.773443 33.8368 1.83533 33.4329L24.8244 24.6884Z" fill="#B5B2FB"/>
<path d="M24.8244 15.3124C25.1139 15.2023 25.4349 15.2023 25.7245 15.3124L48.7135 24.0569C49.7754 24.4608 49.7754 25.9369 48.7135 26.3408L25.7245 35.0853C25.4349 35.1955 25.1139 35.1955 24.8244 35.0853L1.83533 26.3408C0.773445 25.9369 0.773443 24.4608 1.83533 24.0569L24.8244 15.3124Z" fill="#6D68FB"/>
<path fill-rule="evenodd" clip-rule="evenodd" d="M37.824 39.831L25.646 44.684C25.3623 44.7971 25.0477 44.7971 24.764 44.684L12.5859 39.831L24.764 34.9779C25.0477 34.8648 25.3623 34.8648 25.646 34.9779L37.824 39.831Z" fill="#B20EFF"/>
</svg>
